static_grf.mot
version=1
nRows=20
nColumns 19
inDegrees=yes
endheader
time	1_ground_force_vx	1_ground_force_vy	1_ground_force_vz	1_ground_force_px	1_ground_force_py	1_ground_force_pz	1_ground_torque_x	1_ground_torque_y	1_ground_torque_z	2_ground_force_vx	2_ground_force_vy	2_ground_force_vz	2_ground_force_px	2_ground_force_py	2_ground_force_pz	2_ground_torque_x	2_ground_torque_y	2_ground_torque_z
            1.002500	            0.653783	          268.288548	          -11.232749	           -0.325392	            0.006286	           -0.424048	            0.000598	            0.245536	           -0.010280	           -2.674304	          288.140872	           13.746511	           -0.312469	            0.005202	           -0.654573	            0.001130	           -0.121803	           -0.005811
            1.003000	            0.608833	          269.007832	          -10.816840	           -0.324603	            0.006285	           -0.423601	            0.000430	            0.190093	           -0.007644	           -2.249873	          287.404767	           14.025272	           -0.312783	            0.005199	           -0.654113	            0.002045	           -0.261208	           -0.012747
            1.003500	            0.699950	          269.008833	          -11.046347	           -0.324650	            0.006284	           -0.423497	            0.000615	            0.236208	           -0.009699	           -2.483561	          287.220617	           13.790074	           -0.312712	            0.005200	           -0.654194	            0.001807	           -0.208931	           -0.010031
            1.004000	            0.700049	          268.468066	          -11.048666	           -0.324693	            0.006284	           -0.423557	            0.000617	            0.236786	           -0.009745	           -2.344155	          287.587900	           14.213681	           -0.312792	            0.005199	           -0.654227	            0.002349	           -0.288129	           -0.014240
            1.004500	            0.516710	          268.287735	          -11.048984	           -0.324654	            0.006288	           -0.424301	            0.000361	            0.187288	           -0.007713	           -2.626687	          287.956064	           13.980475	           -0.312639	            0.005201	           -0.654653	            0.001812	           -0.198595	           -0.009642
            1.005000	            0.745631	          268.648704	          -11.139718	           -0.324482	            0.006285	           -0.423598	            0.000695	            0.250330	           -0.010380	           -2.203750	          287.589579	           13.885125	           -0.312401	            0.005201	           -0.654359	            0.002161	           -0.282008	           -0.013616
            1.005500	            0.745581	          269.549866	          -11.089997	           -0.324532	            0.006284	           -0.423514	            0.000606	            0.218962	           -0.009009	           -2.579878	          287.956568	           13.886598	           -0.312509	            0.005200	           -0.654197	            0.001681	           -0.187620	           -0.009048
            1.006000	            0.516432	          269.189290	          -11.090975	           -0.324552	            0.006283	           -0.423322	            0.000399	            0.208160	           -0.008576	           -2.437293	          287.404258	           13.978423	           -0.312723	            0.005199	           -0.653982	            0.001890	           -0.222839	           -0.010838
            1.006500	            0.883175	          269.189361	          -11.091885	           -0.324340	            0.006284	           -0.423530	            0.000969	            0.295300	           -0.012168	           -2.437999	          287.588733	           13.885224	           -0.312614	            0.005199	           -0.653902	            0.001492	           -0.175961	           -0.008496
            1.007000	            0.699771	          269.369561	          -11.090657	           -0.324600	            0.006284	           -0.423488	            0.000575	            0.221283	           -0.009111	           -2.532967	          287.956235	           14.027363	           -0.312566	            0.005201	           -0.654522	            0.002167	           -0.246342	           -0.012000
            1.007500	            0.562748	          268.467647	          -10.956612	           -0.325282	            0.006285	           -0.423681	            0.000426	            0.203163	           -0.008291	           -2.294147	          286.668704	           13.834951	           -0.313059	            0.005196	           -0.653652	            0.001926	           -0.240638	           -0.011613
            1.008000	            0.700487	          269.188146	          -10.816294	           -0.324591	            0.006284	           -0.423348	            0.000582	            0.223728	           -0.008990	           -2.618794	          285.746923	           13.784877	           -0.313004	            0.005195	           -0.653204	            0.001357	           -0.148065	           -0.007143
            1.008500	            0.791735	          268.468084	          -11.048893	           -0.324606	            0.006286	           -0.423906	            0.000769	            0.260727	           -0.010730	           -2.716440	          286.851155	           13.882716	           -0.312688	            0.005199	           -0.654095	            0.001737	           -0.183426	           -0.008877
            1.009000	            0.653912	          268.828982	          -11.138718	           -0.325141	            0.006284	           -0.423414	            0.000523	            0.215083	           -0.008912	           -2.391149	          287.588902	           13.885204	           -0.312602	            0.005199	           -0.654032	            0.002083	           -0.250564	           -0.012098
            1.009500	            0.746003	          269.729315	          -10.905801	           -0.324750	            0.006282	           -0.423024	            0.000591	            0.213742	           -0.008642	           -2.387079	          286.483389	           14.068975	           -0.313102	            0.005196	           -0.653601	            0.002420	           -0.290488	           -0.014266
            1.010000	            0.654464	          269.548865	          -10.860490	           -0.324550	            0.006282	           -0.422921	            0.000465	            0.191655	           -0.007722	           -2.531637	          287.587893	           14.026048	           -0.312677	            0.005200	           -0.654228	            0.001678	           -0.190646	           -0.009298
            1.010500	            0.838031	          269.728742	          -10.768461	           -0.324245	            0.006283	           -0.423281	            0.000741	            0.238541	           -0.009523	           -2.484890	          287.588899	           13.791388	           -0.312801	            0.005200	           -0.654489	            0.002064	           -0.238847	           -0.011454
            1.011000	            0.562454	          268.828571	          -11.046778	           -0.324737	            0.006285	           -0.423610	            0.000448	            0.214137	           -0.008799	           -2.671605	          287.403914	           13.837739	           -0.312860	            0.005198	           -0.653786	            0.001764	           -0.189764	           -0.009137
            1.011500	            0.653978	          268.468451	          -11.140264	           -0.324981	            0.006287	           -0.424130	            0.000588	            0.241358	           -0.010015	           -2.431894	          285.930402	           14.160879	           -0.313065	            0.005194	           -0.653122	            0.002212	           -0.260131	           -0.012883
            1.012000	            0.792352	          268.827436	          -10.772212	           -0.324839	            0.006285	           -0.423775	            0.000675	            0.229073	           -0.009179	           -2.338941	          286.115550	           13.973784	           -0.312818	            0.005197	           -0.653567	            0.002042	           -0.249801	           -0.012200
